# xmcd
#
# Track frame offsets: 
#        150
#        23240
#        26695
#        45779
#        63866
#        69689
#        89069
#        112656
#        134895
#        155602
#        158352
#        178502
#        199840
#        210896
#        231789
#        252579
#
# Disc length: 3577 seconds
#
# Revision: 3
# Processed by: cddbd v1.5.2PL0 Copyright (c) Steve Scherf et al.
# Submitted via: ExactAudioCopy v1.1
#
DISCID=d20df710
DTITLE=J. Cole - Born Sinner
DYEAR=2013
DGENRE=Hip-Hop
TTITLE0=Villuminati
TTITLE1=Kerney Sermon (Skit)
TTITLE2=Land Of The Snakes
TTITLE3=Power Trip (Feat. Miguel)
TTITLE4=Mo Money (Interlude)
TTITLE5=Trouble
TTITLE6=Runaway
TTITLE7=She Knows (Feat. Amber Coffman)
TTITLE8=Rich Niggaz
TTITLE9=Where's Jermaine? (Skit)
TTITLE10=Forbidden Fruit (Feat. Kendrick Lamar)
TTITLE11=Chaining Day
TTITLE12=Ain't That Some Shit (Interlude)
TTITLE13=Crooked Smile (Feat. TLC)
TTITLE14=Let Nas Down
TTITLE15=Born Sinner (Feat. James Fauntleroy)
EXTD=YEAR: 2013
EXTT0=
EXTT1=
EXTT2=
EXTT3=
EXTT4=
EXTT5=
EXTT6=
EXTT7=
EXTT8=
EXTT9=
EXTT10=
EXTT11=
EXTT12=
EXTT13=
EXTT14=
EXTT15=
PLAYORDER=
